<svg id="Layer_1" data-name="Layer 1" xmlns="http://www.w3.org/2000/svg" viewBox="0 0 331.5 98.22"><defs><style>.cls-1{font-size:72px;font-family:PxGrotesk-Screen, Px Grotesk;}.cls-1,.cls-3{fill:blue;}.cls-2{fill:lime;}</style></defs><text class="cls-1" transform="translate(98.29 72.87)">PLAY</text><polygon class="cls-2" points="32.08 22.08 32.08 76.14 70.25 50.46 32.08 22.08"/><path class="cls-3" d="M318.29,6a7.63,7.63,0,0,1,7.62,7.63v71a7.63,7.63,0,0,1-7.62,7.63H13a7.63,7.63,0,0,1-7.62-7.63v-71A7.63,7.63,0,0,1,13,6H318.29m0-5H13A12.63,12.63,0,0,0,.42,13.63v71A12.62,12.62,0,0,0,13,97.22H318.29a12.62,12.62,0,0,0,12.62-12.63v-71A12.63,12.63,0,0,0,318.29,1Z"/></svg>